Coordinates
version=1
nRows=4
nColumns=107
inDegrees=yes

Units are S.I. units (second, meters, Newtons, ...)
If the header above contains a line with 'inDegrees', this indicates whether rotational values are in degrees (yes) or radians (no).

endheader
time	sternoclavicular_r2	sternoclavicular_r3	unrotscap_r3	unrotscap_r2	acromioclavicular_r2	acromioclavicular_r3	acromioclavicular_r1	unrothum_r1	unrothum_r3	unrothum_r2	elv_angle	shoulder_elv	shoulder1_r2	shoulder_rot	elbow_flexion	pro_sup	deviation	flexion	proximal_distal_r1	proximal_distal_r3	cmc_flexion	cmc_abduction	mp_flexion	ip_flexion	mcp2_flexion	mcp2_abduction	pm2_flexion	md2_flexion	mcp3_flexion	mcp3_abduction	pm3_flexion	md3_flexion	mcp4_flexion	mcp4_abduction	pm4_flexion	md4_flexion	mcp5_flexion	mcp5_abduction	pm5_flexion	md5_flexion	bicpt_tx	bicpt_ty	bicpt_tz	bicpt2_tx	bicpt2_ty	bicpt2_tz	ptpt_tx	ptpt_ty	ptpt_tz	FCUpt_tx	FCUpt_ty	FCUpt_tz	EDCpt_tx	EDCpt_ty	EDCpt_tz	APLpt_tx	APLpt_ty	APLpt_tz	FPLpt_tx	FPLpt_ty	FPLpt_tz	FPLpt2_tx	FPLpt2_ty	FPLpt2_tz	PEC1pt2_tx	PEC1pt2_ty	PEC1pt2_tz	PEC1pt3_tx	PEC1pt3_ty	PEC1pt3_tz	PEC2pt2_tx	PEC2pt2_ty	PEC2pt2_tz	PEC2pt3_tx	PEC2pt3_ty	PEC2pt3_tz	PEC3pt2_tx	PEC3pt2_ty	PEC3pt2_tz	PEC3pt3_tx	PEC3pt3_ty	PEC3pt3_tz	DELT2pt2a_tx	DELT2pt2a_ty	DELT2pt2a_tz	DELT2pt2_tx	DELT2pt2_ty	DELT2pt2_tz	LAT1pt2_tx	LAT1pt2_ty	LAT1pt2_tz	LAT1pt3_tx	LAT1pt3_ty	LAT1pt3_tz	LAT2pt2_tx	LAT2pt2_ty	LAT2pt2_tz	LAT2pt3_tx	LAT2pt3_ty	LAT2pt3_tz	LAT3pt2_tx	LAT3pt2_ty	LAT3pt2_tz	LAT3pt3_tx	LAT3pt3_ty	LAT3pt3_tz
      1.10000000	     -0.31852636	      0.13491273	     -0.13491273	      0.31852636	     -0.06449511	      0.52122679	      0.23428785	     -0.23428785	     -0.52122679	      0.06449511	     98.83162582	     75.41394811	     -1.72493728	    -25.34205051	     30.07520127	     28.48024782	      0.16763330	     -1.05747725	      0.20450126	     -0.52873863	      6.19203403	      6.64469898	    -39.71350110	    -52.62269890	     74.62730312	     13.17347448	     82.95442606	     79.13223260	     80.19195196	      5.62514020	     83.25224903	     48.85418276	     80.85946917	     -9.14616508	     94.66214529	     42.67304438	     77.69368430	    -13.65730120	     91.97714952	      5.61968638	      0.00089479	     -0.03104708	     -0.00485523	      0.01640109	     -0.01837008	     -0.00860675	      0.00544563	     -0.06626072	     -0.00234424	      0.00664092	     -0.18371586	     -0.00025468	     -0.00341762	      0.00093211	      0.00019316	      0.00014546	      0.00005818	      0.00029092	      0.00018619	      0.00055857	      0.00031419	      0.00003766	     -0.00013350	     -0.00016020	      0.00247190	      0.00867261	      0.00603312	     -0.00808606	      0.01952385	     -0.01851833	      0.00247190	      0.00867261	      0.00603312	      0.00054466	      0.01809936	     -0.00951054	      0.00391933	      0.00482273	      0.01589728	      0.00000000	      0.00760490	      0.00000000	     -0.00708054	     -0.03272130	     -0.00626959	      0.01666805	     -0.00060140	     -0.00536879	     -0.00087983	      0.01474763	     -0.00603312	      0.00243001	      0.02128351	     -0.01759660	     -0.00590743	      0.01277849	     -0.00540467	     -0.01231762	      0.02698146	     -0.03020750	     -0.02312696	      0.01428677	     -0.00724812	     -0.01533418	      0.03117112	     -0.03774890
      1.13333333	     -0.31899093	      0.13510950	     -0.13510950	      0.31899093	     -0.06458917	      0.52198699	      0.23462956	     -0.23462956	     -0.52198699	      0.06458917	     98.72532410	     75.52393769	     -1.72308196	    -24.81952213	     29.98342513	     28.91058035	      0.17940554	     -1.04199691	      0.21713460	     -0.52099846	      7.66672097	      7.16283729	    -38.80077527	    -47.85015370	     69.37593005	     13.17339495	     81.68014945	     78.09299566	     75.89577500	      5.95580338	     82.65818774	     48.71271015	     77.45932533	     -9.47582193	     91.90686766	     36.77267525	     73.70509001	    -13.61447616	     90.49680877	      5.61032158	      0.00089176	     -0.03103656	     -0.00485354	      0.01641303	     -0.01834514	     -0.00856764	      0.00541383	     -0.06628128	     -0.00237890	      0.00668275	     -0.18370829	     -0.00026139	     -0.00346926	      0.00094811	      0.00019271	      0.00015684	      0.00006274	      0.00031368	      0.00020075	      0.00060226	      0.00033877	      0.00003551	     -0.00015901	     -0.00019082	      0.00247551	      0.00868526	      0.00604192	     -0.00809785	      0.01955232	     -0.01854534	      0.00247551	      0.00868526	      0.00604192	      0.00054545	      0.01812576	     -0.00952442	      0.00392352	      0.00482976	      0.01590764	      0.00000000	      0.00762724	      0.00000000	     -0.00709086	     -0.03276903	     -0.00628814	      0.01640211	     -0.00058437	     -0.00514784	     -0.00088111	      0.01476914	     -0.00604192	      0.00243355	      0.02131455	     -0.01762227	     -0.00591605	      0.01279712	     -0.00541255	     -0.01233559	      0.02702081	     -0.03025156	     -0.02316069	      0.01430760	     -0.00725870	     -0.01535655	      0.03121659	     -0.03780396
      1.16666667	     -0.31909959	      0.13515552	     -0.13515552	      0.31909959	     -0.06461118	      0.52216479	      0.23470948	     -0.23470948	     -0.52216479	      0.06461118	     98.76013663	     75.54966346	     -1.72368955	    -24.86643660	     29.87339076	     29.87748033	      0.19180186	     -1.01174729	      0.23019093	     -0.50587365	      9.24881533	      7.53931777	    -37.20726118	    -42.14905561	     63.42838581	     13.17110857	     79.36162501	     77.19391445	     70.38143071	      6.31245352	     81.32375642	     48.15272564	     72.42380279	     -9.23655766	     88.65742801	     35.62437997	     68.65846157	    -13.62617073	     87.72331304	      5.63507657	      0.00088812	     -0.03102395	     -0.00485151	      0.01643829	     -0.01831525	     -0.00847879	      0.00534239	     -0.06632748	     -0.00245679	      0.00677693	     -0.18369109	     -0.00027598	     -0.00358529	      0.00098428	      0.00019132	      0.00017792	      0.00007117	      0.00035584	      0.00022774	      0.00068321	      0.00038430	      0.00003361	     -0.00018370	     -0.00022044	      0.00247635	      0.00868822	      0.00604398	     -0.00810061	      0.01955898	     -0.01855166	      0.00247635	      0.00868822	      0.00604398	      0.00054564	      0.01813193	     -0.00952766	      0.00392450	      0.00483141	      0.01591006	      0.00000000	      0.00763248	      0.00000000	     -0.00709328	     -0.03278019	     -0.00629249	      0.01642608	     -0.00058590	     -0.00516759	     -0.00088141	      0.01477417	     -0.00604398	      0.00243438	      0.02132181	     -0.01762827	     -0.00591806	      0.01280148	     -0.00541440	     -0.01233979	      0.02703001	     -0.03026186	     -0.02316858	      0.01431248	     -0.00726117	     -0.01536178	      0.03122722	     -0.03781684
      1.20000000	     -0.32067132	      0.13582124	     -0.13582124	      0.32067132	     -0.06492942	      0.52473673	      0.23586555	     -0.23586555	     -0.52473673	      0.06492942	     98.47983736	     75.92178557	     -1.71879741	    -23.18115097	     29.69510527	     29.38280550	      0.22077850	     -0.95793874	      0.25973136	     -0.47896937	     11.04216195	      7.55155319	    -35.51062642	    -35.04768435	     56.65589251	     13.17607851	     75.64256479	     75.36730358	     63.87372144	      6.72845309	     79.29641900	     47.27106347	     66.20275217	     -8.59876024	     84.74872806	     36.22985274	     62.54399852	    -13.66852280	     84.43988684	      5.64830625	      0.00088222	     -0.03100351	     -0.00484822	      0.01642563	     -0.01826682	     -0.00852441	      0.00537894	     -0.06630384	     -0.00241694	      0.00672871	     -0.18369992	     -0.00026860	     -0.00352593	      0.00096574	      0.00019209	      0.00021162	      0.00008465	      0.00042324	      0.00027088	      0.00081263	      0.00045710	      0.00003125	     -0.00020832	     -0.00024998	      0.00248855	      0.00873101	      0.00607375	     -0.00814051	      0.01965532	     -0.01864303	      0.00248855	      0.00873101	      0.00607375	      0.00054832	      0.01822124	     -0.00957459	      0.00393865	      0.00485521	      0.01594488	      0.00000000	      0.00770837	      0.00000000	     -0.00712822	     -0.03294165	     -0.00635550	      0.01554427	     -0.00053159	     -0.00448047	     -0.00088575	      0.01484694	     -0.00607375	      0.00244637	      0.02142683	     -0.01771510	     -0.00594721	      0.01286454	     -0.00544107	     -0.01240057	      0.02716315	     -0.03041092	     -0.02328270	      0.01438297	     -0.00729693	     -0.01543744	      0.03138103	     -0.03800310
